<?xml version="1.0" encoding="utf-8"?>
<!-- Generator: Adobe Illustrator 22.1.0, SVG Export Plug-In . SVG Version: 6.00 Build 0)  -->
<svg version="1.1" id="Laag_1" xmlns="http://www.w3.org/2000/svg" xmlns:xlink="http://www.w3.org/1999/xlink" x="0px" y="0px"
	 viewBox="0 0 200 200" style="enable-background:new 0 0 200 200;" xml:space="preserve">
<style type="text/css">
	.st0{clip-path:url(#Mark_1_);}
	.st1{fill-rule:evenodd;clip-rule:evenodd;fill:#FFFFFF;}
	.st2{clip-path:url(#Mark_1_);fill:#929191;}
</style>
<g id="Standards">
	<g>
		<defs>
			<path id="Mark" d="M198.7,99.7c0,54.9-44.5,99.3-99.3,99.3C44.5,199,0,154.5,0,99.7C0,44.8,44.5,0.3,99.3,0.3
				C154.2,0.3,198.7,44.8,198.7,99.7z"/>
		</defs>
		<clipPath id="Mark_1_">
			<use xlink:href="#Mark"  style="overflow:visible;"/>
		</clipPath>
		<g class="st0">
			<path class="st1" d="M165.4,73.9"/>
		</g>
		<path class="st2" d="M222,99.6L197,41c-1.4-3.4-5.3-4.9-8.7-3.5l-42.5,18.8c-3.4,1.4-4.9,5.3-3.5,8.7l2,4.6
			c-6.2,2.4-13.5,5.1-17.2,5.8c-3.5-4.8-11.2-7.2-14.7-7.2h-0.2c-3.8,0-12,0.9-17.4,1.7v0c-0.5,0.1-1.1,0.2-1.7,0.2
			c-2.7,0.4-5.7,0.8-7.4,2.9c-9.4-0.3-25.4-0.5-31.6-0.5l1.8-7.2C57,60.4,54,55.2,49,54L3.6,41.3C2.8,41.1,2,41,1.2,41
			c-4.3,0-8,2.9-9.1,7.1l-15.7,61.8c-1.3,5,1.8,10.1,6.7,11.4l45.4,12.7c0.8,0.2,1.5,0.3,2.3,0.3c4.3,0,8-2.9,9.1-7.1l1.7-6.6
			c4.1,1.3,13.5,4.1,20.9,6.4c-0.3,0.6-0.5,1.1-0.7,1.7c-3.7,9.8,1.5,13,3.1,13.8c0.9,0.4,1.8,0.6,2.7,0.6c1.7,0,3-0.7,4.1-1.8
			c0.3,1.7,1.2,3.2,3.2,4.2c1.2,0.6,2.3,0.9,3.4,0.9c1.4,0,2.4-0.5,3.3-1.2c0.6,2,1.7,3.6,3,4.3c0.7,0.4,1.4,0.5,2.1,0.5
			c1.9,0,3.6-1.2,4.8-2.7c0.2,1.4,0.6,2.6,1.3,3.6c0.8,1.2,1.9,2,3.1,2.2c0.4,0.1,0.8,0.1,1.2,0.1c4.9,0,6.8-4.9,7.6-7
			c0.1-0.2,0.1-0.3,0.1-0.4c2.9,1.5,6.1,2.8,8.9,2.8c1.9,0,3.5-0.6,4.7-1.8c1.2-1.2,1.8-2.8,2.1-5c0.3,0.1,0.5,0.2,0.8,0.3
			c4.1,1.3,7.4,0.8,9.5-1.5c1.8-2,2.4-4.9,2.5-6.8c2.8-0.3,5.3-3.3,6.4-6.2c0.2-0.4,0.3-0.9,0.4-1.3l24-9.9l3.2,7.5
			c1.4,3.4,5.3,4.9,8.7,3.5l42.5-18.8C221.9,106.9,223.4,103,222,99.6z M34.7,125.8c-0.4,1.7-2,2.9-3.8,2.9c-0.3,0-0.6,0-0.9-0.1
			l-45.4-12.7c-2.1-0.5-3.3-2.7-2.8-4.7l15.7-61.8c0.4-1.7,2-2.9,3.8-2.9c0.3,0,0.6,0,0.9,0.1l45.4,12.7c2.1,0.5,3.3,2.7,2.8,4.7
			L34.7,125.8z M134.2,120.7c0.7,0.5,1.5,0.9,2.2,1.2c1.3,1.3,0.7,3.5,0.4,4.4c-0.9,2.4-2.8,4.3-3.9,4.3c-0.1,0-0.3,0-0.3-0.1
			l-22.3-13.3l0,0l-1.6,2.6c0.7,0.4,17.1,10.2,21.6,12.9c0,1.3-0.3,4-1.7,5.6c-1.3,1.4-3.4,1.6-6.3,0.7c-0.6-0.2-1.3-0.5-2.2-1
			c-1.3-1.2-5.1-3.7-17-10.6l-1.6,2.6c0.4,0.3,9.9,6.9,16.2,10.2c-0.1,2-0.5,3.5-1.3,4.3c-0.6,0.6-1.4,0.9-2.5,0.9
			c-2.5,0-5.6-1.4-8.1-2.8c0.4-3.2-0.5-5.9-1.6-7.6c-1.2-1.7-2.9-2.7-4.6-2.7c-1,0-2.3,0.3-3.7,1.6c-0.2-1.2-0.6-2.2-1.2-3.1
			c-1.1-1.5-2.6-2.4-4.2-2.4c-0.9,0-2.1,0.3-3.5,1.3c-0.1-1.4-0.5-2.7-1.1-3.6c-0.9-1.4-2.4-2.1-3.9-2.1c-1.5,0-3.2,0.7-4.8,2.3
			c-0.3-1.1-0.7-2.2-1.3-3.1c-1.3-2-3.2-3.2-5.2-3.2c-1.5,0-3.9,0.6-6.2,4.2c-7.6-2.3-17.5-5.3-21.6-6.6l10.7-41.9
			c5.2,0,20.6,0.2,30.6,0.5c-2.1,3.7-4.9,10-3.1,12.8c0.6,0.9,1.6,1.2,2.7,1.2c2.2,0,5-1.1,6.9-1.9c0.4-0.1,0.7-0.3,1-0.4
			c1.9-0.7,5.5-3.2,7.9-5.6l1.9-0.6c10.4,6.3,24.4,16.3,32.3,21.9c1.3,0.9,2.4,1.7,3.3,2.4l5,3.9c1.1,1.3,1.7,2.8,1.9,4.1l-2.3,5.2
			c-0.4,0.2-0.9,0.3-1.5,0.3c-0.6,0-1.3-0.1-2-0.4c-4.1-3.1-21.9-12.9-22.6-13.3l-1.5,2.7C114,108.6,128.5,117,134.2,120.7z"/>
	</g>
</g>
</svg>
