<?xml version="1.0" encoding="utf-8"?>
<!-- Generator: Adobe Illustrator 22.1.0, SVG Export Plug-In . SVG Version: 6.00 Build 0)  -->
<svg version="1.1" id="Laag_1" xmlns="http://www.w3.org/2000/svg" xmlns:xlink="http://www.w3.org/1999/xlink" x="0px" y="0px"
	 viewBox="0 0 200 200" style="enable-background:new 0 0 200 200;" xml:space="preserve">
<style type="text/css">
	.st0{fill:#929191;}
</style>
<g id="Consumer_Services">
	<g>
		<path class="st0" d="M114.1,192.7c-2.2,0-4.1-1.6-4.5-4c-0.4-2.6,1.2-5.1,3.7-5.6c0.5-0.1,55.3-11,61.6-49.6
			c0.5-3.3,10.9-34,2.6-65.9C161.8,6.9,34.8,5.1,21,69c-6.8,31.4,7,61.6,7.2,61.9c1.3,2.3,2.7,10.2,0.6,11.6c-2.1,1.4-0.3,8.3-1.6,6
			c-0.8-1.4-26.2-47.5-14.7-82.8c27.7-85,139.2-84,171.2-12.6c13.4,29.9,3.7,63.5,0.2,82.1c-8.6,44.9-66.4,56.9-68.9,57.4
			C114.7,192.6,114.4,192.7,114.1,192.7z"/>
	</g>
	<path class="st0" d="M65.5,85.1c-10.8,23.5-10.8,59.3,0,79.4c-12.1,6.6-43.2,1.9-42.5-39.5C23.7,86.7,53.1,81.8,65.5,85.1z"/>
	<path class="st0" d="M136.7,85.1c10.8,23.5,10.8,59.3,0,79.4c12.1,6.6,43.2,1.9,42.5-39.5C178.4,86.7,149.1,81.8,136.7,85.1z"/>
	<path class="st0" d="M131,185c0,8-7.5,14.5-16.8,14.5S97.3,193,97.3,185c0-8,7.5-14.5,16.8-14.5S131,177,131,185z"/>
</g>
</svg>
