<?xml version="1.0" encoding="utf-8"?>
<!-- Generator: Adobe Illustrator 22.1.0, SVG Export Plug-In . SVG Version: 6.00 Build 0)  -->
<svg version="1.1" id="Laag_1" xmlns="http://www.w3.org/2000/svg" xmlns:xlink="http://www.w3.org/1999/xlink" x="0px" y="0px"
	 viewBox="0 0 200 200" style="enable-background:new 0 0 200 200;" xml:space="preserve">
<style type="text/css">
	.st0{fill-rule:evenodd;clip-rule:evenodd;fill:#929191;}
</style>
<path class="st0" d="M100,75.3c-7-5.9-28.6-21.9-49.9-13.8c-25.9,9.8-35.4,39.8-22.7,64c12.8,24.3,22,35.8,25,42.1
	c1.4,2.9,1.1,8.3,2.1,13.5c3.2,16.3,35,20.1,45.4,11.2c10.1,8.9,41,5.1,44.2-11.2c1-5.2,0.7-10.5,2.1-13.5
	c3-6.4,13.5-17.9,26.3-42.1c12.8-24.2,3.2-54.2-22.7-64C128.6,53.5,107,69.4,100,75.3L100,75.3z M105,23
	c12.6-30.3,44.4-16.8,73.1-4.9c-13.3,16.7-49.5,30.1-70.4,20.4c0.1,10.4-2.8,20.8-5.3,30.1l-3.7,0.2c-1.8-22.6-7.3-37.4-26.5-51.5
	L89.4,3.3C97.5,9.4,102.3,16.1,105,23L105,23z M48.8,125.9c-4.8-9.4-7.4-20.7-5.4-30l14.6-0.4c2.8,8.4,8.4,17.1,12.2,23.3
	L48.8,125.9L48.8,125.9z M56.6,90.1l-11.4,0.3c2.2-4.7,6.1-8.5,11.9-10.7C56,82.8,56,86.4,56.6,90.1z"/>
</svg>
