<?xml version="1.0" encoding="utf-8"?>
<!-- Generator: Adobe Illustrator 22.1.0, SVG Export Plug-In . SVG Version: 6.00 Build 0)  -->
<svg version="1.1" id="Laag_1" xmlns="http://www.w3.org/2000/svg" xmlns:xlink="http://www.w3.org/1999/xlink" x="0px" y="0px"
	 viewBox="0 0 200 200" style="enable-background:new 0 0 200 200;" xml:space="preserve">
<style type="text/css">
	.st0{fill-rule:evenodd;clip-rule:evenodd;fill:#929191;}
</style>
<path class="st0" d="M31.6,59.5l-16,19l62.6,29.3l15.3-21.7L31.6,59.5L31.6,59.5z M106.9,26.2v50.8l57-25.4L106.9,26.2L106.9,26.2z
	 M104.2,76L74.8,63.3L45.7,50.8l58.5-24.1V76L104.2,76z M182.6,45.2l15.9,19.6l-2,9.1l-6.6,2.2l-2.3-9.2l-1.4-0.5V79l-0.5,67.7
	l-73,43l-8.2-4.2l-77-39.3l-3.6-1.8l0-4.6l0.1-42.3L3,87.7L1,76.2l24.9-29.7l2.6-3.1l75.6-31.5l2-0.9l2,0.9L182.6,45.2L182.6,45.2z
	 M35.8,103l42.1,19.7l3.9,1.8l2.7-3.8L101,97.2v71.4l-65.3-33.3L35.8,103z"/>
</svg>
