<?xml version="1.0" encoding="utf-8"?>
<!-- Generator: Adobe Illustrator 22.1.0, SVG Export Plug-In . SVG Version: 6.00 Build 0)  -->
<svg version="1.1" id="Laag_1" xmlns="http://www.w3.org/2000/svg" xmlns:xlink="http://www.w3.org/1999/xlink" x="0px" y="0px"
	 viewBox="0 0 200 200" style="enable-background:new 0 0 200 200;" xml:space="preserve">
<style type="text/css">
	.st0{fill-rule:evenodd;clip-rule:evenodd;fill:#929191;}
</style>
<g id="Power_2_">
	<g>
		
			<rect x="12.7" y="98.3" transform="matrix(0.8463 -0.5328 0.5328 0.8463 -47.9863 39.2536)" class="st0" width="62.7" height="8.9"/>
		<path class="st0" d="M170.9,30.6C162.1,16.5,149.4,9,135,9.6c-13.7,0.5-26.7,8.7-33.2,21c-6.7,12.7-5.6,27.9,3.2,41.6
			c5.9,9.3,11.5,18.1,16.6,26.3l6.7,10.7c9.7,15.5,11.8,31.1,5.5,42.9c-4.6,8.8-13.3,14.2-23.2,14.5c-11.9,0.4-23.7-6.5-32.8-19.2
			l3.2-2l-4-6.4c9.1-10,11.1-24.8,3.9-36.5l0,0L76,94.7l-53.1,33.4l4.9,7.8l0,0c7.5,11.5,21.7,16.2,34.6,12.3l4,6.4l3.5-2.2
			c11,15.5,25.8,24,41,23.5c6.6-0.2,12.9-2.2,18.2-5.5c5.3-3.3,9.7-8.1,12.8-13.9c7.8-14.8,5.7-33.8-5.9-52.2l-6.7-10.7
			c-5.1-8.2-10.7-17.1-16.6-26.4c-7-11-8-22.5-2.8-32.4c4.9-9.4,14.9-15.7,25.4-16.1c10.9-0.4,20.8,5.6,27.8,16.8
			c10.4,15.9,26,41.3,26.2,41.6c1.3,2.2,4.2,2.9,6.4,1.5c2.2-1.4,2.9-4.2,1.5-6.4C197,72.1,181.3,46.6,170.9,30.6z"/>
		<path class="st0" d="M44.3,59c-2.4-3.7-6.8-5.2-10-3.2c-3.1,2-3.8,6.6-1.4,10.3l15.2,24.1l11.4-7.2L44.3,59z"/>
		<path class="st0" d="M15.9,77c-2.4-3.7-6.8-5.2-10-3.2c-3.1,2-3.8,6.6-1.4,10.4l15.2,24.1l11.4-7.2L15.9,77z"/>
	</g>
</g>
</svg>
