<?xml version="1.0" encoding="utf-8"?>
<!-- Generator: Adobe Illustrator 22.1.0, SVG Export Plug-In . SVG Version: 6.00 Build 0)  -->
<svg version="1.1" id="Laag_1" xmlns="http://www.w3.org/2000/svg" xmlns:xlink="http://www.w3.org/1999/xlink" x="0px" y="0px"
	 viewBox="0 0 200 200" style="enable-background:new 0 0 200 200;" xml:space="preserve">
<style type="text/css">
	.st0{fill:#929191;}
</style>
<g id="Money">
	<g>
		<g>
			<path class="st0" d="M61.3,177.9c-33.5,0-60.7-27.2-60.7-60.7c0-33.5,27.2-60.7,60.7-60.7c33.5,0,60.7,27.2,60.7,60.7
				C122,150.7,94.8,177.9,61.3,177.9z M61.3,67.3c-27.5,0-49.8,22.4-49.8,49.8c0,27.5,22.4,49.8,49.8,49.8
				c27.5,0,49.8-22.4,49.8-49.8C111.1,89.7,88.8,67.3,61.3,67.3z"/>
		</g>
		<path class="st0" d="M197.7,31.2c-1.5-8.7-26.1-15.7-56.4-15.7c-30.3,0-54.9,7-56.4,15.7h-0.1V44h0.2c1.6,8.7,26.2,15.6,56.4,15.6
			c30.2,0,54.8-6.9,56.4-15.6h0.2V31.2H197.7z"/>
		<path class="st0" d="M141.3,65.2c-12.8,0-25.9-1.3-36.5-3.9c5.8,4.5,10.8,9.9,15,16c6.6,0.8,13.9,1.2,21.5,1.2
			c30.2,0,54.8-6.9,56.4-15.6h0.2V51.8C190.6,60.6,165.4,65.2,141.3,65.2z"/>
		<path class="st0" d="M141.3,85.4c-5.8,0-11.7-0.3-17.4-0.8c2.1,4,3.8,8.3,5,12.7c4,0.3,8.1,0.4,12.3,0.4
			c30.2,0,54.8-6.9,56.4-15.6h0.2V71.9C190.6,80.8,165.4,85.4,141.3,85.4z"/>
		<path class="st0" d="M141.3,104.3c-3.6,0-7.2-0.1-10.8-0.3c0.7,4,1.2,8.1,1.2,12.4c3.1,0.2,6.3,0.3,9.6,0.3
			c30.2,0,54.8-6.9,56.4-15.6h0.2V90.9C190.6,99.7,165.4,104.3,141.3,104.3z"/>
		<path class="st0" d="M141.3,122.8c-3.3,0-6.6-0.1-9.9-0.3c-0.4,4.3-1.1,8.6-2.3,12.7c3.9,0.2,8,0.4,12.1,0.4
			c30.2,0,54.8-6.9,56.4-15.6h0.2v-10.6C190.6,118.2,165.4,122.8,141.3,122.8z"/>
		<path class="st0" d="M141.3,142.3c-4.8,0-9.6-0.2-14.3-0.5c-1.6,4.1-3.5,8-5.8,11.7c6.3,0.7,13,1.1,20.1,1.1
			c30.2,0,54.8-6.9,56.4-15.6h0.2v-10.1C190.6,137.7,165.4,142.3,141.3,142.3z"/>
	</g>
</g>
<g>
	<path class="st0" d="M88.8,98c-2.6-3.2-5.9-5.7-9.9-7.6c-4-1.9-8.5-2.8-13.5-2.8c-6.2,0-11.7,1.8-16.5,5.4
		c-4.7,3.6-7.9,8.2-9.6,13.9h45.2l-3,6.4H37.9c0,0.3,0,0.6-0.1,0.7c-0.1,1.2-0.1,2-0.1,2.6c0,0.5,0.1,1.3,0.2,2.5v0.5h40.6l-3,6.4
		H39.4c1.8,6,5.1,10.8,10,14.3c4.8,3.5,10.5,5.2,17.1,5.2c4.5,0,8.7-0.9,12.6-2.7c3.9-1.8,7.2-4.3,9.8-7.4v8.6
		c-2.8,2.2-6.2,4-10.3,5.5c-4.1,1.5-8.3,2.3-12.6,2.3c-4.1,0-7.9-0.6-11.6-1.8c-3.7-1.2-7-2.9-10-5.2c-3-2.3-5.5-5-7.6-8.2
		c-2.1-3.2-3.6-6.8-4.6-10.7H20.7l3-6.4h7.2c-0.1-0.9-0.1-1.9-0.1-3.2c0-1.3,0-2.4,0.1-3.3H20.7l3-6.4h8.4C34,99,38,92.7,44.3,88.1
		c6.3-4.6,13.6-6.9,22.1-6.9c4.9,0,9.6,1,14.3,2.8c4.6,1.9,8.3,4.5,11,7.7L88.8,98z"/>
</g>
</svg>
