<?xml version="1.0" encoding="utf-8"?>
<!-- Generator: Adobe Illustrator 22.1.0, SVG Export Plug-In . SVG Version: 6.00 Build 0)  -->
<svg version="1.1" id="Laag_1" xmlns="http://www.w3.org/2000/svg" xmlns:xlink="http://www.w3.org/1999/xlink" x="0px" y="0px"
	 viewBox="0 0 200 200" style="enable-background:new 0 0 200 200;" xml:space="preserve">
<style type="text/css">
	.st0{fill-rule:evenodd;clip-rule:evenodd;fill:#929191;}
</style>
<path class="st0" d="M95.6,102.5L80.1,89.3l-3,3.2c-5.5-5.3-10.6-11.3-15-18.2c-6.2-9.8-11.2-21.8-14-37.4c1.7-2.1,3.6-4,5.7-5.8
	c1.3-1.1,2.7-2.1,4.1-3.1c2,1.1,4.3,1.7,6.7,1.7c7.7,0,13.9-6.2,13.9-13.9c0-7.7-6.2-14-13.9-14c-7.4,0-13.5,5.8-13.9,13.2
	c-2.2,1.5-4.4,3-6.4,4.7C40.4,23,37,26.6,34.2,30.7l-1.7,2.4l0.5,3c3.1,19.4,9,34.2,16.6,46.2c5.2,8.2,11.1,15,17.5,21.1l-4,4.2
	l23.8,19.1h1.3c-2,4.2-5.5,9.8-11.8,16.6c-0.7,0.8-1.3,1.4-2,2.1c-9.7,10.2-27.1,28.4-15.9,43.9c13.7,18.9,43.2,2.2,62.1-8.5
	l0.3-0.2l0.5,0.7c5.4,4.6,12.5,7.3,20.1,7.3c17.3,0,31.3-14,31.3-31.3c0-17.3-14-31.3-31.3-31.3c-17.3,0-31.3,14-31.3,31.3
	c0,4.1,0.8,8.1,2.3,11.7c-14.6,8.3-36.5,20.4-42.6,11.9c-4.3-6,7.9-18.8,14.6-25.9c0.8-0.9,1.6-1.7,2.1-2.2
	c9.9-10.6,14.3-19.8,16.3-26.2h1.4l23.8-19.1l-3.8-4.1c6.4-6.2,12.4-13.1,17.7-21.3c7.6-12,13.5-26.8,16.6-46.2l0.5-3l-1.7-2.4
	c-2.9-4.1-6.3-7.7-10.1-10.9c-2-1.7-4.2-3.3-6.4-4.7c-0.4-7.3-6.5-13.2-13.9-13.2c-7.7,0-13.9,6.2-13.9,14c0,7.7,6.2,13.9,13.9,13.9
	c2.4,0,4.7-0.6,6.7-1.7c1.4,1,2.8,2,4.1,3.1c2.1,1.8,4,3.7,5.7,5.8c-2.8,15.6-7.8,27.6-14,37.4c-4.5,7.1-9.7,13-15.2,18.4l-3.2-3.4
	L95.6,102.5L95.6,102.5z M141.6,145.2c6.8,0,12.2,5.5,12.2,12.2c0,6.8-5.5,12.2-12.2,12.2c-6.8,0-12.2-5.5-12.2-12.2
	C129.3,150.7,134.8,145.2,141.6,145.2z"/>
</svg>
