<?xml version="1.0" encoding="utf-8"?>
<!-- Generator: Adobe Illustrator 22.1.0, SVG Export Plug-In . SVG Version: 6.00 Build 0)  -->
<svg version="1.1" id="Laag_1" xmlns="http://www.w3.org/2000/svg" xmlns:xlink="http://www.w3.org/1999/xlink" x="0px" y="0px"
	 viewBox="0 0 200 200" style="enable-background:new 0 0 200 200;" xml:space="preserve">
<style type="text/css">
	.st0{fill:#929191;}
</style>
<path id="Healthcare" class="st0" d="M155.9,11.2C150.2,9.1,144.5,8,138.8,8c-16.8,0-30.3,9.3-38.8,19.4C91.5,17.3,77.9,8,61.2,8
	c-5.7,0-11.4,1.1-17.1,3.2C5.7,25.2-0.3,51.5,1.4,71C6,122.5,70.9,187.2,97.5,191.9c0.4,0.1,0.7,0.1,1.1,0.1h2.8
	c0.4,0,0.8,0,1.1-0.1c26.5-4.7,91.5-69.4,96-120.9C200.3,51.5,194.3,25.2,155.9,11.2z M100.8,179.1h-1.6
	C84.8,176,50,145.7,29.7,111.6h22.8l16.1,29.7c1.1,2.1,3.3,3.4,5.7,3.4c0.1,0,0.3,0,0.5,0c2.5-0.2,4.7-1.8,5.6-4.2l22.2-59.4
	l10.5,28.5c0.9,2.6,3.4,4.4,6.1,4.2l50.3-0.7C148.9,146.6,115,176,100.8,179.1z M185.7,69.9c-0.9,9.8-4.2,20.1-9.2,30.3l-53,0.7
	l-15-40.5c-0.9-2.5-3.3-4.2-6-4.2c-2.5,0.1-5.1,1.7-6.1,4.2l-23.3,62.4L62,102.1c-1.1-2.1-3.3-3.4-5.7-3.4H23.4
	c-0.2,0-0.4,0-0.6,0.1c-4.6-9.7-7.7-19.6-8.5-28.9c-2-22.2,9.2-37.4,34.2-46.6c4.2-1.6,8.5-2.3,12.6-2.3c15.6,0,27.7,11.2,33.2,20.9
	c1.2,2,3.3,3.2,5.6,3.2c2.3,0,4.4-1.2,5.6-3.2c5.6-9.6,17.6-20.9,33.2-20.9c4.1,0,8.4,0.8,12.6,2.3
	C176.5,32.5,187.7,47.7,185.7,69.9z"/>
</svg>
