<svg xmlns="http://www.w3.org/2000/svg" xmlns:xlink="http://www.w3.org/1999/xlink" viewBox="0 0 103.78 225"><defs><style>.cls-1{fill:none;}.cls-2{clip-path:url(#clip-path);}.cls-3{fill:#fff;}</style><clipPath id="clip-path"><rect class="cls-1" width="103.78" height="225"/></clipPath></defs><title>Ресурс 1</title><g id="Слой_2" data-name="Слой 2"><g id="Слой_1-2" data-name="Слой 1"><g class="cls-2"><path class="cls-3" d="M28.37,225c-8.47-3-12-9.68-10.85-17.9C19.34,194,22,181,24.83,168c3.34-15.42,7.25-30.71,10.75-46.09.44-1.93-.14-4.09-.24-6.15-2.05.19-4.31-.1-6.13.67-7.77,3.28-15.41,6.88-23.54,10.56L0,117.57c7.31-5.28,14.48-10.89,22.07-15.84C37.3,91.79,53.24,83.23,71.3,79.49c10.26-2.12,16.3,2.12,16,12.49a128.16,128.16,0,0,1-3.56,25.54C78.9,137.88,73.27,158,68.35,178.38c-.83,3.4.25,7.27.45,10.92,3.3-.67,6.89-.73,9.85-2.13,6.26-3,12.2-6.66,18.57-10.22l6.56,8.68c-6.13,5.22-12,10.57-18.21,15.43A130.9,130.9,0,0,1,37.37,225Z"/><path class="cls-3" d="M83.37,0c10.26,2.58,17.23,8.29,18.1,19.51C102.68,35.14,90.39,49,74.52,50,62.13,50.84,54,46.36,50.83,37A27.93,27.93,0,0,1,62.18,5.19C65.86,2.86,70.29,1.7,74.37,0Z"/></g></g></g></svg>