<svg xmlns="http://www.w3.org/2000/svg" xmlns:xlink="http://www.w3.org/1999/xlink" version="1.1" x="0px" y="0px" viewBox="0 0 100 100" enable-background="new 0 0 100 100" xml:space="preserve"><path d="M78.014,20.385c8.463,8.75,12.51,18.127,12.84,29.081c0.076,2.519-1.453,4.183-3.876,4.312  c-2.557,0.136-4.293-1.441-4.356-4.012c-0.134-5.394-1.357-10.521-4.033-15.211C72.491,23.871,63.191,18.302,50.95,17.603  c-1.358-0.077-2.631-0.218-3.586-1.305c-1.223-1.391-1.33-2.991-0.672-4.62c0.664-1.642,2.01-2.382,3.759-2.352  c7.969,0.135,15.321,2.353,21.955,6.761C74.697,17.61,76.787,19.437,78.014,20.385z M50.11,24.674  c-0.732-0.01-1.53,0.134-2.189,0.44c-1.704,0.79-2.505,2.791-2.048,4.786c0.402,1.758,1.954,2.972,3.906,2.996  c4.562,0.056,8.597,1.499,11.951,4.624c3.688,3.434,5.41,7.741,5.588,12.751c0.032,0.891,0.367,1.904,0.891,2.618  c1.094,1.49,3.037,1.864,4.821,1.184c1.577-0.601,2.506-2.014,2.492-3.886c-0.051-6.981-2.592-12.943-7.5-18.08  C63.098,27.364,57.118,24.773,50.11,24.674z M73.486,87.206c1.689-1.888,3.575-3.599,5.361-5.401  c2.643-2.667,2.664-5.902,0.036-8.55c-3.134-3.157-6.28-6.302-9.44-9.433c-2.586-2.562-5.819-2.556-8.393-0.005  c-1.966,1.948-3.936,3.893-5.86,5.882c-0.133,0.137-0.261,0.247-0.389,0.328l-1.346,1.346c-0.375,0.239-0.748,0.236-1.236-0.029  c-1.27-0.689-2.619-1.246-3.839-2.012c-5.695-3.575-10.471-8.183-14.694-13.374c-2.101-2.582-3.968-5.329-5.259-8.431  c-0.215-0.517-0.221-0.888,0.067-1.281l1.346-1.346c0.064-0.087,0.137-0.175,0.231-0.265c0.59-0.569,1.175-1.143,1.757-1.72  c1.361-1.348,2.706-2.711,4.057-4.069c2.69-2.703,2.684-5.88-0.015-8.604c-1.531-1.544-3.074-3.077-4.612-4.614  c-1.585-1.584-3.157-3.181-4.756-4.75c-2.59-2.543-5.824-2.548-8.408-0.007c-1.973,1.941-3.882,3.948-5.886,5.856  c-1.866,1.777-2.817,3.931-3.007,6.463c-0.307,4.104,0.699,7.983,2.106,11.77c2.909,7.832,7.333,14.766,12.686,21.137  c7.239,8.617,15.894,15.436,26.017,20.355c4.554,2.213,9.283,3.915,14.409,4.196C67.944,90.844,71.028,89.954,73.486,87.206z"></path></svg>