<?xml version="1.0" encoding="utf-8"?>
<!-- Generator: Adobe Illustrator 22.1.0, SVG Export Plug-In . SVG Version: 6.00 Build 0)  -->
<svg version="1.1" id="Laag_1" xmlns="http://www.w3.org/2000/svg" xmlns:xlink="http://www.w3.org/1999/xlink" x="0px" y="0px"
	 viewBox="0 0 200 200" style="enable-background:new 0 0 200 200;" xml:space="preserve">
<style type="text/css">
	.st0{fill:#929191;}
</style>
<g id="Oil">
	<path class="st0" d="M186.3,76.6"/>
	<path class="st0" d="M181,81.9"/>
	<g>
		<g>
			<path class="st0" d="M57.4,177.4C57.4,177.4,57.4,177.3,57.4,177.4c5.3-3.6,12.4-8.5,23.5-8.5c10.7,0,17.6,4.5,23.2,8.3v-19
				l38.1-31.3V98.8H125l64.1-59.1v31.1h1.9c2.2,0,3.9,1.8,3.9,3.9s-1.8,3.9-3.9,3.9c-2.2,0-3.9-1.8-3.9-3.9c0-1-0.8-1.9-1.9-1.9
				c-1,0-1.9,0.8-1.9,1.9c0,4.2,3.4,7.6,7.6,7.6c4.2,0,7.6-3.4,7.6-7.6c0-3.6-2.5-6.6-5.8-7.4V33.2l-4.9-6.4l-88,57.6l-5.9-42.2l0,0
				l0,0l-0.3-2.1h4.7v-7.4h-5.8l-1.9-13.8h5.7v-7.4h-6.7l-1.4-9.8H74.3l-1.4,9.8h-6.8v7.4h5.7l-2,13.8h-5.7v7.4h4.6l-4.6,31.8V54.7
				H35.5v44.1H19.3v27.9l38.1,31.3V177.4z M130.4,88.8l0-6.4l5.5,1.3L130.4,88.8z M177.4,39.9l2.4,0.6l0.1,2.8l-2.5-1V39.9z
				 M171.4,44l2.2,0.9v2.3l-2.2-0.8V44z M165,48.1l2.7,1v3.6l-2.7-1V48.1z M165,55.6L166,56l-1.1,1V55.6z M161.2,48.9v1.5l-1.4-0.5
				L161.2,48.9z M158.6,53.4l2.6,0.9v3.1l-2.6-1.1V53.4z M158.6,60.3l1.9,0.8l-1.9,1.8V60.3z M154.9,53.1v1.6l-1.4-0.6L154.9,53.1z
				 M151.3,57.1l3.5,1.5v5l-3.7-1.2L151.3,57.1z M151.1,66.4l2.7,0.9l-2.8,2.6L151.1,66.4z M147.6,57.8l-0.1,3.5l-3.5-1.1
				L147.6,57.8z M141.6,63.3l5.8,1.9l-0.2,6.5l-5.6-1.7V63.3z M141.6,73.9l3.8,1.1l-3.8,3.5V73.9z M137.9,64.2V69l-5-1.5L137.9,64.2
				z M137.9,72.8v7.6l-7.5-1.8l0-8L137.9,72.8z M126.6,71.6l0,6.1l-6.8-1.7L126.6,71.6z M117.1,79.2l9.6,2.3l0,9.3l-9.6-2
				L117.1,79.2z M117,92.6l7.6,1.6l-5.1,4.7H117L117,92.6z M113.3,80.3l0,7.7l-8.9-1.9L113.3,80.3z M100.1,89l13.2,2.8l0,7.1H85
				L100.1,89z M94,68.3l2.4,17.2l-12.4-9.4L94,68.3z M92.4,56.3l-8.2-6.3l6.7-5.1L92.4,56.3z M83.1,5.4h2.2l0.8,6.1h-3V5.4z
				 M83.1,18.9h4.1l1.9,13.8h-6V18.9z M83.1,40.2h7l0.1,0.5l-7.1,5.5V40.2z M83.1,54l10,7.6l0.3,2.5l-10.3,8.1V54z M83.1,80l11,8.4
				l-11,7.2V80z M77.5,5.4h1.9v6.1h-2.7L77.5,5.4z M75.5,18.9h3.8v13.8h-5.8L75.5,18.9z M72.5,40.2h6.9v6.3l-7-5.4L72.5,40.2z
				 M71.7,45.3l6.3,4.8l-7.9,6.1L71.7,45.3z M69.4,61.5l10-7.7v18.7l-10.4-7.9L69.4,61.5z M68.3,68.8l9.6,7.3l-12.1,9.4L68.3,68.8z
				 M64.1,97.9l1-7.1l14.2-11.1v18.3l-1.2,0.8H64.1V97.9z"/>
		</g>
		<path class="st0" d="M163,181.1c-4.9-3.3-10.6-6.7-19.1-6.7c0,0,0,0,0,0c-9.4,0-15.4,4.2-20.3,7.5c-4,2.7-7.1,4.9-11.4,4.9
			c-4.1,0-7.3-2.2-11.4-4.9c-5.2-3.5-11.1-7.5-20.3-7.5c0,0,0,0,0,0c-9.4,0-15.4,4.2-20.3,7.5c-4,2.7-7.1,4.9-11.4,4.9h-2.9
			c-4.1,0-7.3-2.2-11.4-4.9c-5.2-3.5-11.1-7.5-20.3-7.5c0,0,0,0,0,0c-5,0-9,1.2-12.4,2.8v8.5c3.5-2.1,7.2-3.8,12.4-3.8c0,0,0,0,0,0
			c6.9,0,11.4,3,16.1,6.2c4.5,3,9.2,6.2,15.6,6.2h2.9c6.6,0,11.2-3.2,15.6-6.2c4.6-3.2,9-6.2,16-6.2c0,0,0,0,0,0
			c6.9,0,11.4,3,16.1,6.2c4.5,3,9.2,6.2,15.6,6.2c6.6,0,11.2-3.2,15.6-6.2c4.6-3.2,9-6.2,16-6.2c0,0,0,0,0,0c6.9,0,11.4,3,16.1,6.2
			c1,0.7,2,1.3,3,1.9V181.1z"/>
	</g>
</g>
</svg>
