<svg xmlns="http://www.w3.org/2000/svg" xmlns:xlink="http://www.w3.org/1999/xlink" viewBox="0 0 11.27 14.65"><defs><style>.cls-1{fill:none;}.cls-2{clip-path:url(#clip-path);}.cls-3{fill:#fff;}</style><clipPath id="clip-path" transform="translate(0)"><rect class="cls-1" width="11.27" height="14.65"/></clipPath></defs><title>Ресурс 1</title><g id="Слой_2" data-name="Слой 2"><g id="Слой_1-2" data-name="Слой 1"><g class="cls-2"><path class="cls-3" d="M5.07,11.21c0,.14,0,.29,0,.43a2.27,2.27,0,0,0,0,.27.56.56,0,0,0,1.12-.1c0-.39,0-.79,0-1.18,0-.06,0-.11.07-.14l0,0A1.12,1.12,0,0,0,6.62,9a1.13,1.13,0,0,0-2.11.66,1.1,1.1,0,0,0,.52.82.07.07,0,0,1,0,.07c0,.21,0,.42,0,.63m.56-5.58H9.55a1.66,1.66,0,0,1,1.25.54,1.64,1.64,0,0,1,.46,1.16c0,1.87,0,3.74,0,5.61a1.64,1.64,0,0,1-.94,1.52,1.58,1.58,0,0,1-.76.18H1.69A1.68,1.68,0,0,1,0,13.3a1.74,1.74,0,0,1,0-.36q0-2.8,0-5.6A1.69,1.69,0,0,1,1.27,5.68a1.77,1.77,0,0,1,.44-.05H5.63" transform="translate(0)"/><path class="cls-3" d="M3.38,5.07H1.69V5c0-.34,0-.68,0-1a4.74,4.74,0,0,1,.71-2.32A3.51,3.51,0,0,1,4.14.27,4,4,0,0,1,5.2,0,4.37,4.37,0,0,1,6.26,0a3.85,3.85,0,0,1,1.3.42A3.44,3.44,0,0,1,8.85,1.68a4.61,4.61,0,0,1,.65,1.75,6.7,6.7,0,0,1,.08,1.11c0,.16,0,.32,0,.47v.05H7.88V5c0-.23,0-.47,0-.7a3.8,3.8,0,0,0-.27-1.39A2,2,0,0,0,6.8,2a1.91,1.91,0,0,0-.71-.23,3.32,3.32,0,0,0-.83,0,1.85,1.85,0,0,0-1.45.93,3.05,3.05,0,0,0-.37,1.09A8.23,8.23,0,0,0,3.38,5v.07" transform="translate(0)"/></g></g></g></svg>