<svg xmlns="http://www.w3.org/2000/svg" xmlns:xlink="http://www.w3.org/1999/xlink" viewBox="0 0 14.49 14.49"><defs><style>.cls-1{fill:none;}.cls-2{clip-path:url(#clip-path);}.cls-3{fill:#000;}</style><clipPath id="clip-path"><rect class="cls-1" width="14.49" height="14.49"/></clipPath></defs><title>Ресурс 1</title><g id="Слой_2" data-name="Слой 2"><g id="Слой_1-2" data-name="Слой 1"><g class="cls-2"><path class="cls-3" d="M4.22,3.17A1.05,1.05,0,1,0,3.17,4.22,1.05,1.05,0,0,0,4.22,3.17M5.83,0h.23a1.12,1.12,0,0,1,.67.36l6.5,6.5,1,1a1.06,1.06,0,0,1,.28.48l0,.14V8.7a1.12,1.12,0,0,1-.36.66l-2.91,2.9L9.31,14.18a1.06,1.06,0,0,1-.48.28l-.15,0H8.41a1,1,0,0,1-.59-.3L.31,6.67A1,1,0,0,1,0,6.21L0,6V5.81l0-.08L.76,1.6A1,1,0,0,1,1.56.77L3.07.5,5.2.12,5.83,0"/></g></g></g></svg>