<?xml version="1.0" encoding="utf-8"?>
<!-- Generator: Adobe Illustrator 22.1.0, SVG Export Plug-In . SVG Version: 6.00 Build 0)  -->
<svg version="1.1" id="Laag_1" xmlns="http://www.w3.org/2000/svg" xmlns:xlink="http://www.w3.org/1999/xlink" x="0px" y="0px"
	 viewBox="0 0 200 200" style="enable-background:new 0 0 200 200;" xml:space="preserve">
<style type="text/css">
	.st0{fill:#929191;}
</style>
<g id="Resources">
	<path class="st0" d="M59,43.6h81.7l30.4-14.4l-28-12.1c-0.5-0.2-1.1-0.3-1.6-0.3h-41.2c-0.1,0-0.2,0.1-0.4,0.1
		c-0.1,0-0.2-0.1-0.4-0.1H58.4c-0.6,0-1.1,0.1-1.6,0.3l-28,12.1L59,43.6z"/>
	<polygon class="st0" points="53.6,50 22.2,35.1 1.4,59 48,79.4 	"/>
	<path class="st0" d="M48.1,88.3L0,67.2c0,0,95.7,115.7,96.1,115.9L48.1,88.3z"/>
	<g>
		<polygon class="st0" points="152,79.4 198.6,59 177.8,35.1 146.4,49.9 		"/>
		<polygon class="st0" points="138.5,51.7 61.5,51.7 55.9,81.1 144.1,81.1 		"/>
	</g>
	<g>
		<polygon class="st0" points="151.9,88.3 105.1,183.2 200,67.2 		"/>
		<polygon class="st0" points="142.4,89.2 57.6,89.2 100,173 		"/>
	</g>
</g>
</svg>
