<?xml version="1.0" encoding="utf-8"?>
<!-- Generator: Adobe Illustrator 22.1.0, SVG Export Plug-In . SVG Version: 6.00 Build 0)  -->
<svg version="1.1" id="Laag_1" xmlns="http://www.w3.org/2000/svg" xmlns:xlink="http://www.w3.org/1999/xlink" x="0px" y="0px"
	 viewBox="0 0 200 200" style="enable-background:new 0 0 200 200;" xml:space="preserve">
<style type="text/css">
	.st0{fill-rule:evenodd;clip-rule:evenodd;fill:#929191;}
</style>
<path class="st0" d="M90,47.1c-2.9-7.6-8.7-14.2-16.7-17.8c-8-3.6-16.8-3.7-24.4-0.8c-7.7,2.9-14.2,8.7-17.8,16.7
	c-3.6,8-3.7,16.8-0.8,24.4C33.2,77.2,39,83.8,47,87.4c8,3.6,16.8,3.7,24.4,0.8c7.6-2.9,14.2-8.7,17.8-16.7
	C92.9,63.5,92.9,54.7,90,47.1L90,47.1z M87.1,18.2c2.7,1.8,5.1,3.8,7.3,6l8.3-4.6c3.9,3.2,6.6,7,8.1,11.3l-7.3,6.2
	c0.7,1.4,1.3,2.8,1.8,4.2c0.6,1.5,1.1,3.1,1.5,4.6l9.5,0.1c1.8,4.7,2.3,9.3,1.4,13.8l-9.4,1.7c-0.2,3.1-0.7,6.2-1.6,9.3l8.2,4.9
	c-0.8,5-2.7,9.2-5.7,12.7l-9-3.2c-1.8,2.7-3.8,5.1-6,7.3l4.6,8.3c-3.2,3.9-7,6.6-11.3,8.1l-6.2-7.3c-1.4,0.7-2.8,1.3-4.2,1.8
	c-1.5,0.6-3.1,1.1-4.6,1.5l-0.1,9.5c-4.7,1.8-9.3,2.3-13.8,1.4l-1.7-9.4c-3.1-0.2-6.2-0.7-9.3-1.6l-4.9,8.2c-5-0.8-9.2-2.7-12.7-5.7
	l3.2-9c-2.7-1.8-5.1-3.8-7.3-6l-8.3,4.7c-3.9-3.2-6.6-7-8.1-11.3l7.3-6.2c-0.7-1.4-1.3-2.8-1.8-4.2c-0.6-1.5-1.1-3.1-1.5-4.6L4,70.6
	c-1.8-4.7-2.2-9.3-1.4-13.8l9.4-1.7c0.2-3.1,0.7-6.3,1.6-9.3l-8.2-4.9c0.8-5,2.7-9.2,5.7-12.7l9,3.2c1.8-2.7,3.8-5.1,6-7.3l-4.7-8.3
	c3.2-3.9,7-6.6,11.3-8.1l6.2,7.3c1.4-0.7,2.8-1.3,4.2-1.8c1.5-0.6,3.1-1.1,4.6-1.5l0.1-9.5c4.7-1.8,9.3-2.3,13.8-1.4l1.7,9.4
	c3.1,0.2,6.3,0.7,9.3,1.6l4.9-8.2c5,0.8,9.2,2.7,12.7,5.7L87.1,18.2L87.1,18.2z M169,130.1c-2.9-7.6-8.7-14.2-16.7-17.8
	c-8-3.6-16.8-3.7-24.4-0.8c-7.6,2.9-14.2,8.7-17.8,16.7c-3.6,8-3.7,16.8-0.8,24.4c2.9,7.6,8.7,14.2,16.7,17.8
	c8,3.6,16.8,3.7,24.4,0.8c7.6-2.9,14.2-8.7,17.8-16.7C171.9,146.5,171.9,137.7,169,130.1L169,130.1z M166.1,101.2
	c2.7,1.8,5.1,3.8,7.3,6l8.3-4.6c3.9,3.2,6.6,7,8.1,11.3l-7.3,6.2c0.7,1.4,1.3,2.8,1.8,4.2c0.6,1.5,1.1,3.1,1.5,4.6l9.5,0.1
	c1.8,4.7,2.2,9.3,1.4,13.8l-9.4,1.7c-0.2,3.1-0.7,6.2-1.6,9.3l8.2,4.9c-0.8,5-2.7,9.2-5.7,12.7l-9-3.2c-1.8,2.7-3.8,5.1-6,7.3
	l4.6,8.3c-3.2,3.9-7,6.6-11.3,8.1l-6.2-7.3c-1.4,0.7-2.8,1.3-4.2,1.8c-1.5,0.6-3.1,1.1-4.6,1.5l-0.1,9.5c-4.7,1.8-9.3,2.3-13.8,1.4
	l-1.7-9.4c-3.1-0.2-6.3-0.7-9.3-1.6l-4.9,8.2c-5-0.8-9.2-2.7-12.7-5.8l3.2-9c-2.7-1.8-5.1-3.8-7.3-6l-8.3,4.7
	c-3.9-3.2-6.6-7-8.1-11.3l7.3-6.2c-0.7-1.4-1.3-2.8-1.8-4.2c-0.6-1.5-1.1-3.1-1.5-4.6l-9.5-0.1c-1.8-4.7-2.3-9.3-1.4-13.8L91,138
	c0.2-3.1,0.7-6.2,1.6-9.3l-8.2-4.9c0.8-5,2.7-9.2,5.7-12.7l9,3.2c1.8-2.7,3.8-5.1,6-7.3l-4.6-8.3c3.2-3.9,7-6.6,11.3-8.1l6.2,7.3
	c1.4-0.7,2.8-1.3,4.2-1.8c1.5-0.6,3.1-1.1,4.6-1.5l0.1-9.5c4.7-1.8,9.3-2.2,13.8-1.4l1.7,9.4c3.1,0.2,6.2,0.7,9.3,1.6l4.9-8.2
	c5,0.8,9.2,2.7,12.7,5.7L166.1,101.2z"/>
</svg>
