<?xml version="1.0" encoding="utf-8"?>
<!-- Generator: Adobe Illustrator 22.1.0, SVG Export Plug-In . SVG Version: 6.00 Build 0)  -->
<svg version="1.1" id="Laag_1" xmlns="http://www.w3.org/2000/svg" xmlns:xlink="http://www.w3.org/1999/xlink" x="0px" y="0px"
	 viewBox="0 0 200 200" style="enable-background:new 0 0 200 200;" xml:space="preserve">
<style type="text/css">
	.st0{fill-rule:evenodd;clip-rule:evenodd;fill:#929191;}
	.st1{fill:#929191;}
</style>
<g id="Robot_3">
	<g>
		<g>
			<g>
				<rect x="39.5" y="50.9" class="st0" width="76.4" height="15.3"/>
				<path class="st0" d="M134.5,35c-13,0-23.5,10.5-23.5,23.5c0,13,10.5,23.5,23.5,23.5c13,0,23.5-10.5,23.5-23.5
					C158.1,45.5,147.5,35,134.5,35z M134.5,72.2c-7.6,0-13.7-6.1-13.7-13.7s6.1-13.7,13.7-13.7c7.6,0,13.7,6.1,13.7,13.7
					S142.1,72.2,134.5,72.2z"/>
				<path class="st0" d="M29.9,42.5c-8.9,0-16.1,7.2-16.1,16.1c0,8.9,7.2,16.1,16.1,16.1c8.9,0,16.1-7.2,16.1-16.1
					C46,49.7,38.8,42.5,29.9,42.5z M29.9,68.1c-5.3,0-9.6-4.3-9.6-9.6s4.3-9.6,9.6-9.6c5.3,0,9.6,4.3,9.6,9.6S35.2,68.1,29.9,68.1z"
					/>
				<path class="st1" d="M142.3,58.5c0,4.3-3.5,7.8-7.8,7.8c-4.3,0-7.8-3.5-7.8-7.8c0-4.3,3.5-7.8,7.8-7.8
					C138.8,50.7,142.3,54.2,142.3,58.5z"/>
				<path class="st1" d="M35.3,58.5c0,3-2.4,5.4-5.4,5.4c-3,0-5.4-2.4-5.4-5.4c0-3,2.4-5.4,5.4-5.4C32.9,53.1,35.3,55.5,35.3,58.5z"
					/>
				<g>
					<path class="st1" d="M134.5,77.7l52.9,67.2c7.5-14.9,11.7-31.8,11.7-49.6c0-0.1,0-0.2,0-0.3l-45.5-36.5L134.5,77.7z"/>
				</g>
			</g>
			<g>
				<path class="st1" d="M164.9,165H4.4c-2,0-3.6-1.6-3.6-3.6c0-2,1.6-3.6,3.6-3.6h160.5c2,0,3.6,1.6,3.6,3.6
					C168.5,163.4,166.9,165,164.9,165z"/>
			</g>
			<rect x="21.7" y="123.3" class="st1" width="16.4" height="17.5"/>
			<rect x="96.9" y="134.6" class="st1" width="46" height="17.5"/>
			<rect x="56.3" y="134.6" class="st1" width="28.3" height="17.5"/>
		</g>
		<path class="st0" d="M39,68.9H21.4l0.1,17.6L1.8,106.3l17.1,28.1l-5.1-27.7l10.8-10.9c1.6,1.4,3.6,2.2,5.8,2.2
			c1.9,0,3.7-0.6,5.1-1.7l10.6,10.5l-4.9,27.7L58,106.3L39.1,87.6L39,68.9z M35.2,90.7c0,0.2,0,0.4,0,0.5c0,0.1,0,0.3-0.1,0.4
			c0,0.2-0.1,0.4-0.2,0.6c0,0.1-0.1,0.2-0.1,0.4c-0.1,0.2-0.2,0.4-0.3,0.6c-0.1,0.1-0.1,0.2-0.2,0.3c-0.2,0.3-0.4,0.5-0.6,0.8
			c-2,2-5.3,2.1-7.4,0c0,0-0.1-0.1-0.1-0.1c-0.4-0.4-0.7-0.8-0.9-1.3c0-0.1-0.1-0.1-0.1-0.2c-0.2-0.5-0.3-1-0.4-1.5
			c0-0.1,0-0.2,0-0.3c0-0.5,0-1,0.1-1.5c0-0.1,0-0.2,0.1-0.2c0.1-0.5,0.3-1,0.6-1.5c0.2-0.3,0.4-0.6,0.7-0.8c2-2,5.3-2.1,7.4,0
			c0.2,0.2,0.5,0.5,0.7,0.8c0.1,0.1,0.1,0.2,0.1,0.2c0.1,0.2,0.2,0.4,0.3,0.6c0,0.1,0.1,0.2,0.1,0.4c0.1,0.2,0.1,0.4,0.2,0.6
			c0,0.1,0,0.3,0.1,0.4c0,0.2,0,0.4,0.1,0.5C35.2,90.4,35.2,90.5,35.2,90.7z"/>
	</g>
</g>
</svg>
