<?xml version="1.0" encoding="utf-8"?>
<!-- Generator: Adobe Illustrator 22.1.0, SVG Export Plug-In . SVG Version: 6.00 Build 0)  -->
<svg version="1.1" id="Laag_1" xmlns="http://www.w3.org/2000/svg" xmlns:xlink="http://www.w3.org/1999/xlink" x="0px" y="0px"
	 viewBox="0 0 200 200" style="enable-background:new 0 0 200 200;" xml:space="preserve">
<style type="text/css">
	.st0{fill:#929191;}
</style>
<g id="Shopping_Cart">
	<g id="Shopping_Cart_Full">
		<path class="st0" d="M138.9,38.3V0.5H75.8v37.8H49.9v40.3h25.9h9.3h44.5h9.3h47.3V38.3H138.9z M75.8,69.3H59.2V47.6h16.6V69.3z
			 M129.6,69.3H85.1v-31V9.8h44.5v28.5V69.3z M176.9,69.3h-38V47.6h38V69.3z"/>
		<g>
			<path class="st0" d="M80.4,154.8c-12.3,0-22.4,10-22.4,22.4c0,12.3,10,22.4,22.4,22.4c12.3,0,22.4-10,22.4-22.4
				C102.8,164.8,92.7,154.8,80.4,154.8z"/>
			<path class="st0" d="M151.9,154.8c-12.3,0-22.4,10-22.4,22.4c0,12.3,10,22.4,22.4,22.4c12.3,0,22.4-10,22.4-22.4
				C174.3,164.8,164.3,154.8,151.9,154.8z"/>
			<path class="st0" d="M59.2,153.7h114l21.2-84.4H43.6L26.7,25.9H5.5v9.3h14.8L36,75.4L59.2,153.7z M53.6,102h123.1l-3.7,14.9H58
				L53.6,102z M66.2,144.4l-5.4-18.3h109.9l-4.6,18.3H66.2z M182.6,78.6L179,92.7H50.8l-4.2-14.1H182.6z"/>
		</g>
	</g>
</g>
</svg>
