<?xml version="1.0" encoding="utf-8"?>
<!-- Generator: Adobe Illustrator 22.1.0, SVG Export Plug-In . SVG Version: 6.00 Build 0)  -->
<svg version="1.1" id="Laag_1" xmlns="http://www.w3.org/2000/svg" xmlns:xlink="http://www.w3.org/1999/xlink" x="0px" y="0px"
	 viewBox="0 0 200 200" style="enable-background:new 0 0 200 200;" xml:space="preserve">
<style type="text/css">
	.st0{fill:#929191;}
</style>
<g id="CPU_1_">
	<g>
		<path class="st0" d="M95.8,86.9c-1.5,0-2.5,0.1-3,0.3v9.4c0.6,0.1,1.4,0.2,2.4,0.2c3.8,0,6.2-1.9,6.2-5.2
			C101.4,88.7,99.4,86.9,95.8,86.9z"/>
		<path class="st0" d="M34.4,33.9v131.7h131.7V33.9H34.4z M69.9,108.1c2.2,0,4.6-0.5,6-1l1.1,5.6c-1.3,0.7-4.3,1.4-8.2,1.4
			c-11,0-16.7-6.9-16.7-16c0-10.9,7.8-17,17.4-17c3.7,0,6.6,0.8,7.9,1.4L76,88.3c-1.5-0.6-3.5-1.2-6.1-1.2
			c-5.7,0-10.2,3.5-10.2,10.6C59.7,104.1,63.5,108.1,69.9,108.1z M105.6,99c-2.5,2.3-6.1,3.4-10.4,3.4c-0.9,0-1.8,0-2.5-0.1v11.4
			h-7.2V82.1c2.2-0.4,5.4-0.7,9.8-0.7c4.5,0,7.6,0.9,9.8,2.6c2,1.6,3.4,4.3,3.4,7.4C108.6,94.5,107.5,97.2,105.6,99z M143.1,99.6
			c0,9.9-5,14.6-13.3,14.6c-8.1,0-12.8-4.5-12.8-14.6V81.7h7.2v18.4c0,5.5,2.1,8.3,5.8,8.3c3.8,0,5.9-2.7,5.9-8.3V81.7h7.2V99.6z"/>
		<g>
			<rect x="68" y="187.3" class="st0" width="13.4" height="12.2"/>
			<rect x="68" class="st0" width="13.4" height="12.2"/>
			<rect x="93.6" class="st0" width="13.4" height="12.2"/>
			<rect x="93.6" y="187.3" class="st0" width="13.4" height="12.2"/>
			<rect x="119.2" class="st0" width="13.4" height="12.2"/>
			<rect x="119.2" y="187.3" class="st0" width="13.4" height="12.2"/>
			<path class="st0" d="M12.7,55.3V26.4c0-7.8,6.4-14.2,14.2-14.2h28.9V0H27C12.4,0,0.6,11.8,0.6,26.4v28.9H12.7z"/>
			<rect x="0.6" y="67.5" class="st0" width="12.2" height="13.4"/>
			<rect x="0.6" y="93" class="st0" width="12.2" height="13.4"/>
			<g>
				<rect x="0.6" y="118.6" class="st0" width="12.2" height="13.4"/>
				<path class="st0" d="M12.7,173.1v-28.9H0.6v28.9c0,14.6,11.8,26.4,26.4,26.4h28.9v-12.2H27C19.1,187.3,12.7,180.9,12.7,173.1z"
					/>
			</g>
			<path class="st0" d="M187.8,26.4v28.9H200V26.4C200,11.8,188.2,0,173.6,0h-28.9v12.2h28.9C181.4,12.2,187.8,18.6,187.8,26.4z"/>
			<rect x="187.8" y="67.5" class="st0" width="12.2" height="13.4"/>
			<rect x="187.8" y="93" class="st0" width="12.2" height="13.4"/>
			<g>
				<rect x="187.8" y="118.6" class="st0" width="12.2" height="13.4"/>
				<path class="st0" d="M187.8,144.2v28.9c0,7.8-6.4,14.2-14.2,14.2h-28.9v12.2h28.9c14.6,0,26.4-11.8,26.4-26.4v-28.9H187.8z"/>
			</g>
		</g>
	</g>
</g>
</svg>
