<?xml version="1.0" encoding="utf-8"?>
<!-- Generator: Adobe Illustrator 22.1.0, SVG Export Plug-In . SVG Version: 6.00 Build 0)  -->
<svg version="1.1" id="Laag_1" xmlns="http://www.w3.org/2000/svg" xmlns:xlink="http://www.w3.org/1999/xlink" x="0px" y="0px"
	 viewBox="0 0 200 200" style="enable-background:new 0 0 200 200;" xml:space="preserve">
<style type="text/css">
	.st0{fill:#929191;}
</style>
<g id="Automotive">
	<path class="st0" d="M198.3,116.1c-3.3-16-17.5-35.2-47.3-41.3c-2.9-0.6-7.1-4.1-12-8.1C127.3,57,109.6,42.5,82,42.5l-0.4,0
		c-24.9,0.1-33.3,10-40.8,18.8c-4.7,5.5-9.1,10.7-17.5,13.6C8.2,80.1,1.9,97.6,1.1,112.2c-0.6,9.9,1.1,22.6,7.8,25.9
		c2.5,1.2,10.8,3.4,11.2,3.4c3.2,11.5,13.7,19.9,26.2,19.9c10.1,0,18.9-5.5,23.6-13.7c0.2-0.1,24.6,0.9,36.5,0.9
		c8.6,0,17-0.2,25-0.5c0.4,0,0.8-0.1,1.1-0.3c0.3,0.5,0.7,1,1.2,1.5c4.9,7.3,13.2,12,22.6,12c12.3,0,22.7-8.2,26-19.5
		c0.4,0.1,0.9,0,1.3-0.1c4.1-1.2,7.2-2.5,9.4-4C198.3,134.2,200.3,125.8,198.3,116.1z M46.3,156.9c-12.5,0-22.7-10.1-22.7-22.7
		c0-12.5,10.1-22.7,22.7-22.7c12.5,0,22.7,10.1,22.7,22.7C68.9,146.8,58.8,156.9,46.3,156.9z M156.3,156.9
		c-12.5,0-22.7-10.1-22.7-22.7c0-12.5,10.1-22.7,22.7-22.7c12.5,0,22.7,10.1,22.7,22.7C178.9,146.8,168.8,156.9,156.3,156.9z"/>
</g>
</svg>
