<?xml version="1.0" encoding="utf-8"?>
<!-- Generator: Adobe Illustrator 22.1.0, SVG Export Plug-In . SVG Version: 6.00 Build 0)  -->
<svg version="1.1" id="Laag_1" xmlns="http://www.w3.org/2000/svg" xmlns:xlink="http://www.w3.org/1999/xlink" x="0px" y="0px"
	 viewBox="0 0 200 200" style="enable-background:new 0 0 200 200;" xml:space="preserve">
<style type="text/css">
	.st0{fill:#929191;}
</style>
<g>
	<path class="st0" d="M123.3,138.3h-51v-5.1c0-8.7,1-15.7,3-21.1c2-5.4,4.9-10.4,8.8-14.8c3.9-4.5,12.6-12.3,26.2-23.6
		c7.2-5.9,10.9-11.3,10.9-16.2s-1.5-8.7-4.4-11.5c-2.9-2.7-7.3-4.1-13.2-4.1c-6.3,0-11.6,2.1-15.8,6.3c-4.2,4.2-6.8,11.5-8,22
		l-52-6.4c1.8-19.1,8.7-34.5,20.9-46.2S79.4,0,104.4,0c19.5,0,35.2,4.1,47.2,12.2c16.3,11,24.4,25.7,24.4,44c0,7.6-2.1,14.9-6.3,22
		c-4.2,7.1-12.8,15.7-25.8,25.9c-9,7.2-14.7,12.9-17.1,17.2C124.5,125.7,123.3,131.3,123.3,138.3z M70.6,151.8h54.6V200H70.6V151.8z
		"/>
</g>
</svg>
