<?xml version="1.0" encoding="utf-8"?>
<!-- Generator: Adobe Illustrator 22.1.0, SVG Export Plug-In . SVG Version: 6.00 Build 0)  -->
<svg version="1.1" id="Laag_1" xmlns="http://www.w3.org/2000/svg" xmlns:xlink="http://www.w3.org/1999/xlink" x="0px" y="0px"
	 viewBox="0 0 200 200" style="enable-background:new 0 0 200 200;" xml:space="preserve">
<style type="text/css">
	.st0{fill-rule:evenodd;clip-rule:evenodd;fill:#929191;}
</style>
<g id="Utilities">
	<path class="st0" d="M112.9,19c-1.1,3.1-3.5,5.6-6.5,6.8v10.3h8.5c2.6,0,4.7,2.1,4.7,4.7v4.9h34c4.1,0,7.5,3.4,7.5,7.5v15
		c0,4.2-3.4,7.5-7.5,7.5H78.2v31.8c0,4.1-3.4,7.5-7.5,7.5h-15c-4.1,0-7.5-3.4-7.5-7.5V69.3c0-10.7,5.9-23.6,23.5-23.6h11v-4.9
		c0-2.6,2.1-4.7,4.7-4.7h10.1V25.7c-2.9-1.3-5.2-3.7-6.2-6.7H74c-1.1,0-2-0.9-2-2v-4.1c0-1.1,0.9-2,2-2h17.4
		c1.7-4.2,5.8-7.2,10.6-7.2c4.8,0,8.9,3,10.6,7.2h17.2c1.1,0,2,0.9,2,2V17c0,1.1-0.9,2-2,2H112.9L112.9,19z"/>
	<path class="st0" d="M62.8,124.9c0,0-24,33.4-24,47.8c0,13.3,10.7,24,24,24c13.2,0,24-10.7,24-24C86.8,158.3,62.8,124.9,62.8,124.9
		L62.8,124.9z M62.5,193.3c7.9,1.4,19.8-6.6,19.7-14.3c-0.1-4.1-2.8,2.6-10.4,8.1C65.5,191.5,58.1,192.5,62.5,193.3L62.5,193.3z"/>
</g>
</svg>
