<svg xmlns="http://www.w3.org/2000/svg" xmlns:xlink="http://www.w3.org/1999/xlink" viewBox="0 0 78.68 47.26"><defs><style>.cls-1{fill:none;}.cls-2{clip-path:url(#clip-path);}.cls-3{fill:#b50000;}</style><clipPath id="clip-path" transform="translate(0)"><rect class="cls-1" width="78.68" height="47.26"/></clipPath></defs><title>1</title><g id="Слой_2" data-name="Слой 2"><g id="Слой_1-2" data-name="Слой 1"><g class="cls-2"><path class="cls-3" d="M78.38,29.25c-1.31-6.35-6.94-14-18.8-16.42-1.13-.23-2.82-1.62-4.77-3.23C50.17,5.77,43.16,0,32.21,0H32C22.16.05,18.8,4,15.84,7.46c-1.87,2.19-3.63,4.25-7,5.41-6,2.07-8.48,9-8.83,14.85-.23,3.93.44,9,3.11,10.27A29.48,29.48,0,0,0,7.6,39.34a10.78,10.78,0,0,0,19.76,2.47c.07,0,9.76.38,14.5.38,3.41,0,6.75-.06,9.93-.19a1.29,1.29,0,0,0,.45-.11,1.86,1.86,0,0,0,.49.6,10.79,10.79,0,0,0,19.31-3,1.25,1.25,0,0,0,.53,0,12.82,12.82,0,0,0,3.72-1.6c2.09-1.46,2.89-4.77,2.09-8.65M18,45.46a9,9,0,1,1,9-9,9,9,0,0,1-9,9m43.71,0a9,9,0,1,1,9-9,9,9,0,0,1-9,9" transform="translate(0)"/></g></g></g></svg>