<svg xmlns="http://www.w3.org/2000/svg" xmlns:xlink="http://www.w3.org/1999/xlink" viewBox="0 0 56.92 68.08"><defs><style>.cls-1{fill:none;}.cls-2{clip-path:url(#clip-path);}.cls-3{fill:#b50000;}</style><clipPath id="clip-path" transform="translate(0)"><rect class="cls-1" width="56.92" height="68.08"/></clipPath></defs><title>10</title><g id="Слой_2" data-name="Слой 2"><g id="Слой_1-2" data-name="Слой 1"><g class="cls-2"><path class="cls-3" d="M26.94,31.7a7.72,7.72,0,0,1-1.27-1.5l-2.1,2.32,2.88,2.62,2.12-2.34a7.62,7.62,0,0,1-1.63-1.1" transform="translate(0)"/><path class="cls-3" d="M37.24,29.52a6.42,6.42,0,1,1-.44-9.07,6.42,6.42,0,0,1,.44,9.07" transform="translate(0)"/><path class="cls-3" d="M48.78,10.65l.53.65a20.61,20.61,0,0,1,4.26,14.22,1.63,1.63,0,0,0,0,.28l3.24.1a1.13,1.13,0,0,0,0-.13A23.88,23.88,0,0,0,51.91,9.29c-.22-.28-.44-.56-.67-.83l-.12-.13L47.68,5.05l-.13-.11A24,24,0,0,0,30.23.16l.45,3.28A20.66,20.66,0,0,1,45.47,7.49Z" transform="translate(0)"/><path class="cls-3" d="M44.56,16.2a15.65,15.65,0,0,1,3.28,9.41l3.28.1a19,19,0,0,0-20-18.87l.44,3.28a15.64,15.64,0,0,1,13,6.08" transform="translate(0)"/><path class="cls-3" d="M40.4,20.2a9.66,9.66,0,0,1,2,5.23l3.3.11A13,13,0,0,0,32,13.18l.45,3.28A9.64,9.64,0,0,1,40.4,20.2" transform="translate(0)"/><path class="cls-3" d="M11.11,49.3c-.93-.84-1.8-1.72-2.64-2.61L4.88,68.08H27.35l-1.68-10A42.72,42.72,0,0,1,11.11,49.3" transform="translate(0)"/><path class="cls-3" d="M51,49.89a23,23,0,0,0-2.16-5.12,69.37,69.37,0,0,0-10-14l-.1.13a8.4,8.4,0,0,1-1.89,1.55,66.08,66.08,0,0,1,10.65,14c.56,1.07,1.47,2.09.77,2.8-1.39.48-13.06-7.59-19.69-13.14C19.86,28.8,13,20.89,8.67,13.81a.79.79,0,0,1,1-1.15A66.7,66.7,0,0,1,24.81,21.6a8.52,8.52,0,0,1,1.4-2.1l.06-.06A69.26,69.26,0,0,0,7,9.64,1.56,1.56,0,0,0,5.48,10a14.91,14.91,0,0,0-1.25,1.22c-8,8.82-4.31,25.22,8.25,36.62s29.24,13.49,37.25,4.67a14.05,14.05,0,0,0,1-1.23A1.65,1.65,0,0,0,51,49.89" transform="translate(0)"/></g></g></g></svg>