<svg xmlns="http://www.w3.org/2000/svg" xmlns:xlink="http://www.w3.org/1999/xlink" viewBox="0 0 72.68 59.84"><defs><style>.cls-1{fill:none;}.cls-2{clip-path:url(#clip-path);}.cls-3{fill:#b50000;}</style><clipPath id="clip-path"><rect class="cls-1" width="72.68" height="59.84"/></clipPath></defs><title>2</title><g id="Слой_2" data-name="Слой 2"><g id="Слой_1-2" data-name="Слой 1"><g class="cls-2"><path class="cls-3" d="M22.38,59.84A22.38,22.38,0,1,1,44.75,37.46,22.4,22.4,0,0,1,22.38,59.84m0-40.74A18.36,18.36,0,1,0,40.74,37.46,18.38,18.38,0,0,0,22.38,19.1"/><path class="cls-3" d="M21.12,52.63V48.9a10.75,10.75,0,0,1-5.65-1.62l.89-2.48a9.84,9.84,0,0,0,5.32,1.59c2.62,0,4.4-1.51,4.4-3.62s-1.44-3.29-4.17-4.4C18.13,36.89,15.8,35.19,15.8,32S18,26.59,21.38,26V22.3h2.29v3.58a9.87,9.87,0,0,1,4.8,1.29l-.92,2.44a8.92,8.92,0,0,0-4.65-1.26c-2.84,0-3.92,1.7-3.92,3.18,0,1.92,1.37,2.88,4.58,4.21,3.8,1.55,5.73,3.47,5.73,6.76,0,2.92-2,5.65-5.84,6.28v3.84Z"/><path class="cls-3" d="M72.63,5.79C72.09,2.57,63,0,51.84,0S31.6,2.57,31.06,5.79H31v4.72h.06c.58,3.21,9.65,5.77,20.78,5.77S72,13.72,72.63,10.51h.06V5.79Z"/><path class="cls-3" d="M51.84,18.33A59.75,59.75,0,0,1,38.4,16.91a26.14,26.14,0,0,1,5.51,5.91,66.69,66.69,0,0,0,7.94.46c11.13,0,20.2-2.55,20.78-5.77h.06V13.37c-2.67,3.26-11.95,5-20.84,5"/><path class="cls-3" d="M51.84,25.75c-2.14,0-4.31-.1-6.4-.3a25.85,25.85,0,0,1,1.85,4.67c1.47.1,3,.15,4.55.15,11.13,0,20.2-2.55,20.78-5.76h.06V20.79c-2.67,3.26-11.95,5-20.84,5"/><path class="cls-3" d="M51.84,32.73c-1.32,0-2.65,0-4-.12a26,26,0,0,1,.44,4.56c1.15.06,2.32.09,3.53.09C63,37.27,72,34.71,72.63,31.5h.06V27.78c-2.67,3.26-11.95,5-20.84,5"/><path class="cls-3" d="M51.84,39.55c-1.21,0-2.43,0-3.63-.1a25.75,25.75,0,0,1-.84,4.66c1.44.09,2.93.15,4.47.15C63,44.27,72,41.71,72.63,38.5h.06V34.6c-2.67,3.26-11.95,5-20.84,5"/><path class="cls-3" d="M51.84,46.74c-1.76,0-3.53-.07-5.26-.2a25.88,25.88,0,0,1-2.15,4.32,67.15,67.15,0,0,0,7.41.4C63,51.26,72,48.71,72.63,45.5h.06V41.78c-2.67,3.26-11.95,5-20.84,5"/></g></g></g></svg>