<svg xmlns="http://www.w3.org/2000/svg" xmlns:xlink="http://www.w3.org/1999/xlink" viewBox="0 0 55.54 67.79"><defs><style>.cls-1{fill:none;}.cls-2{clip-path:url(#clip-path);}.cls-3{fill:#b50000;}</style><clipPath id="clip-path"><rect class="cls-1" width="63.39" height="67.79"/></clipPath></defs><title>3</title><g id="Слой_2" data-name="Слой 2"><g id="Слой_1-2" data-name="Слой 1"><g class="cls-2"><path class="cls-3" d="M54.73,56.26,38.24,26.79V4.59H40.7A2.29,2.29,0,1,0,40.7,0H14.84a2.29,2.29,0,0,0,0,4.59H17.3V26.79L.75,56.39A8.38,8.38,0,0,0,1.12,64c2.22,3.67,5.2,3.77,5.53,3.77H48.89c.33,0,3.31-.1,5.53-3.77a8.41,8.41,0,0,0,.3-7.76m-4.22,5.38a3.32,3.32,0,0,1-1.62,1.56H6.79S5.91,63.07,5,61.64a3.84,3.84,0,0,1-.22-3.14h0l16.78-30a2.31,2.31,0,0,0,.29-1.12V4.59H33.65v22.8a2.3,2.3,0,0,0,.29,1.12L50.66,58.37a3.85,3.85,0,0,1-.15,3.27"/><path class="cls-3" d="M32.06,32.5a4.29,4.29,0,1,1-4.29-4.29,4.29,4.29,0,0,1,4.29,4.29"/><path class="cls-3" d="M48.5,59.45,38.22,41.08H17.32L7.06,59.43a1.41,1.41,0,0,0,0,1,2.75,2.75,0,0,0,.29.4H48.16a2.8,2.8,0,0,0,.29-.4,1.41,1.41,0,0,0,.05-.94M21,50.81A2.85,2.85,0,1,1,23.86,48,2.85,2.85,0,0,1,21,50.81m11,7.4a4.29,4.29,0,1,1,4.29-4.29,4.29,4.29,0,0,1-4.29,4.29"/></g></g></g></svg>