<svg xmlns="http://www.w3.org/2000/svg" xmlns:xlink="http://www.w3.org/1999/xlink" viewBox="0 0 60.85 60.85"><defs><style>.cls-1{fill:none;}.cls-2{clip-path:url(#clip-path);}.cls-3{fill:#b50000;}</style><clipPath id="clip-path" transform="translate(0 0)"><rect class="cls-1" width="60.85" height="60.85"/></clipPath></defs><title>4</title><g id="Слой_2" data-name="Слой 2"><g id="Слой_1-2" data-name="Слой 1"><g class="cls-2"><path class="cls-3" d="M29.05,26.52a3.69,3.69,0,0,0-.91.09v2.88a3.3,3.3,0,0,0,.73.06c1.17,0,1.9-.59,1.9-1.59s-.62-1.43-1.72-1.43" transform="translate(0 0)"/><path class="cls-3" d="M10.34,50.51H50.51V10.34H10.34ZM21.17,33A5.46,5.46,0,0,0,23,32.68l.33,1.72a6.3,6.3,0,0,1-2.5.42c-3.37,0-5.11-2.1-5.11-4.87a5,5,0,0,1,5.32-5.18,5.71,5.71,0,0,1,2.4.43L23,27a4.75,4.75,0,0,0-1.85-.36A2.93,2.93,0,0,0,18,29.81,2.91,2.91,0,0,0,21.17,33M32.06,30.2a4.51,4.51,0,0,1-3.17,1,5.49,5.49,0,0,1-.75,0v3.49H26V25.06a18.15,18.15,0,0,1,3-.2,4.69,4.69,0,0,1,3,.78,2.85,2.85,0,0,1,1,2.26,3.11,3.11,0,0,1-.9,2.31m11.43.19c0,3-1.52,4.44-4.07,4.44s-3.9-1.36-3.9-4.47V24.93h2.21v5.61c0,1.68.64,2.53,1.76,2.53s1.79-.81,1.79-2.53V24.93h2.2Z" transform="translate(0 0)"/><rect class="cls-3" x="20.58" y="57.13" width="4.08" height="3.72"/><rect class="cls-3" x="20.58" width="4.08" height="3.72"/><rect class="cls-3" x="28.38" width="4.08" height="3.72"/><rect class="cls-3" x="28.38" y="57.13" width="4.08" height="3.72"/><rect class="cls-3" x="36.18" width="4.08" height="3.72"/><rect class="cls-3" x="36.18" y="57.13" width="4.08" height="3.72"/><path class="cls-3" d="M3.72,16.87V8.05A4.34,4.34,0,0,1,8.05,3.72h8.81V0H8.05A8.06,8.06,0,0,0,0,8.05v8.81Z" transform="translate(0 0)"/><rect class="cls-3" y="20.58" width="3.72" height="4.08"/><rect class="cls-3" y="28.38" width="3.72" height="4.08"/><rect class="cls-3" y="36.18" width="3.72" height="4.08"/><path class="cls-3" d="M3.72,52.8V44H0V52.8a8.06,8.06,0,0,0,8.05,8.05h8.81V57.13H8.05A4.34,4.34,0,0,1,3.72,52.8" transform="translate(0 0)"/><path class="cls-3" d="M57.13,8.05v8.81h3.72V8.05A8.06,8.06,0,0,0,52.8,0H44V3.72H52.8a4.34,4.34,0,0,1,4.34,4.34" transform="translate(0 0)"/><rect class="cls-3" x="57.13" y="20.58" width="3.72" height="4.08"/><rect class="cls-3" x="57.13" y="28.38" width="3.72" height="4.08"/><rect class="cls-3" x="57.13" y="36.18" width="3.72" height="4.08"/><path class="cls-3" d="M57.13,44V52.8a4.34,4.34,0,0,1-4.34,4.34H44v3.72H52.8a8.06,8.06,0,0,0,8.05-8.05V44Z" transform="translate(0 0)"/></g></g></g></svg>