<svg xmlns="http://www.w3.org/2000/svg" xmlns:xlink="http://www.w3.org/1999/xlink" viewBox="0 0 87.81 75"><defs><style>.cls-1{fill:none;}.cls-2,.cls-4{fill:#b50000;}.cls-3{clip-path:url(#clip-path);}.cls-4{fill-rule:evenodd;}</style><clipPath id="clip-path" transform="translate(0)"><rect class="cls-1" width="87.81" height="75"/></clipPath></defs><title>5</title><g id="Слой_2" data-name="Слой 2"><g id="Слой_1-2" data-name="Слой 1"><rect class="cls-2" x="4.33" y="40.03" width="28.27" height="4.01" transform="matrix(0.85, -0.53, 0.53, 0.85, -19.55, 16.3)"/><g class="cls-3"><path class="cls-4" d="M75.67,9.52C71.71,3.15,66-.22,59.49,0a18,18,0,0,0-15,9.47C41.5,15.21,42,22,45.94,28.24c2.67,4.19,5.17,8.17,7.48,11.87l3,4.81c4.39,7,5.3,14,2.48,19.35a12.18,12.18,0,0,1-10.44,6.55c-5.36.19-10.67-3-14.79-8.66l1.44-.91-1.81-2.87A13.78,13.78,0,0,0,35.1,41.93h0L32.89,38.4,9,53.46,11.18,57h0a13.78,13.78,0,0,0,15.6,5.52l1.81,2.87,1.56-1c5,7,11.61,10.84,18.47,10.6a16.31,16.31,0,0,0,14-8.76C66.14,59.56,65.18,51,60,42.71L57,37.9c-2.32-3.71-4.82-7.7-7.5-11.89-3.15-5-3.59-10.14-1.25-14.58A13.72,13.72,0,0,1,59.64,4.18C64.56,4,69,6.68,72.16,11.76,76.83,18.93,83.89,30.39,84,30.5a2.08,2.08,0,0,0,3.55-2.19c-.07-.12-7.15-11.61-11.83-18.8" transform="translate(0)"/><path class="cls-4" d="M18.6,22.32a3.35,3.35,0,0,0-4.49-1.43,3.35,3.35,0,0,0-.64,4.67L20.3,36.41l5.13-3.23Z" transform="translate(0)"/><path class="cls-4" d="M5.77,30.4A3.35,3.35,0,0,0,1.28,29a3.36,3.36,0,0,0-.65,4.67L7.47,44.49l5.13-3.23Z" transform="translate(0)"/></g></g></g></svg>