<svg xmlns="http://www.w3.org/2000/svg" xmlns:xlink="http://www.w3.org/1999/xlink" viewBox="0 0 64.02 59.58"><defs><style>.cls-1{fill:none;}.cls-2{clip-path:url(#clip-path);}.cls-3{fill:#b50000;}</style><clipPath id="clip-path" transform="translate(0 0)"><rect class="cls-1" width="64.02" height="59.58"/></clipPath></defs><title>6</title><g id="Слой_2" data-name="Слой 2"><g id="Слой_1-2" data-name="Слой 1"><g class="cls-2"><path class="cls-3" d="M50.12,1a16.07,16.07,0,0,0-5.54-1A16.7,16.7,0,0,0,32,6.29,16.7,16.7,0,0,0,19.43,0,16,16,0,0,0,13.9,1C1.47,5.58-.47,14.08.08,20.4,1.56,37.07,22.6,58,31.19,59.55a2,2,0,0,0,.36,0h.92a2,2,0,0,0,.36,0C41.43,58,62.46,37.07,63.93,20.4,64.49,14.08,62.55,5.58,50.12,1M32.27,55.41h-.52c-4.68-1-15.93-10.83-22.52-21.85h7.38l5.22,9.62a2.1,2.1,0,0,0,1.84,1.09h.15a2.09,2.09,0,0,0,1.81-1.35l7.18-19.22,3.4,9.21a2,2,0,0,0,2,1.37l16.28-.21C47.85,44.87,36.88,54.41,32.27,55.41M59.77,20a28.89,28.89,0,0,1-3,9.81l-17.17.22L34.78,17a2.1,2.1,0,0,0-2-1.37,2.19,2.19,0,0,0-2,1.36l-7.54,20.2-3.63-6.68a2.09,2.09,0,0,0-1.84-1.09H7.2l-.18,0A28.4,28.4,0,0,1,4.25,20c-.63-7.19,3-12.12,11.09-15.09a11.9,11.9,0,0,1,4.09-.76c5.06,0,9,3.64,10.77,6.76a2.09,2.09,0,0,0,3.62,0c1.81-3.12,5.71-6.76,10.77-6.76a11.9,11.9,0,0,1,4.09.76c8.1,3,11.73,7.91,11.09,15.09" transform="translate(0 0)"/></g></g></g></svg>