<svg xmlns="http://www.w3.org/2000/svg" xmlns:xlink="http://www.w3.org/1999/xlink" viewBox="0 0 67.21 59.25"><defs><style>.cls-1{fill:none;}.cls-2{clip-path:url(#clip-path);}.cls-3{fill:#b50000;}</style><clipPath id="clip-path" transform="translate(0 0)"><rect class="cls-1" width="67.21" height="59.25"/></clipPath></defs><title>7</title><g id="Слой_2" data-name="Слой 2"><g id="Слой_1-2" data-name="Слой 1"><g class="cls-2"><path class="cls-3" d="M13.63,14H8.78A8.8,8.8,0,0,0,0,22.81V50.47a8.8,8.8,0,0,0,8.78,8.78h4.85Z" transform="translate(0 0)"/><rect class="cls-3" x="16.42" y="14.03" width="34.38" height="45.22"/><path class="cls-3" d="M58.44,14H53.59V59.25h4.85a8.8,8.8,0,0,0,8.78-8.78V22.81A8.8,8.8,0,0,0,58.44,14" transform="translate(0 0)"/><path class="cls-3" d="M44,11.46H40.27V6.1a2.38,2.38,0,0,0-2.38-2.38H29.33A2.38,2.38,0,0,0,26.95,6.1v5.36H23.23V6.1A6.1,6.1,0,0,1,29.33,0h8.56A6.1,6.1,0,0,1,44,6.1Z" transform="translate(0 0)"/></g></g></g></svg>