<svg xmlns="http://www.w3.org/2000/svg" xmlns:xlink="http://www.w3.org/1999/xlink" viewBox="0 0 82.05 53.78"><defs><style>.cls-1{fill:none;}.cls-2,.cls-4{fill:#b50000;}.cls-3{clip-path:url(#clip-path);}.cls-4{fill-rule:evenodd;}</style><clipPath id="clip-path" transform="translate(0)"><rect class="cls-1" width="82.05" height="53.78"/></clipPath></defs><title>8</title><g id="Слой_2" data-name="Слой 2"><g id="Слой_1-2" data-name="Слой 1"><rect class="cls-2" x="15.99" y="6.56" width="31.62" height="6.34"/><g class="cls-3"><path class="cls-4" d="M55.31,0A9.73,9.73,0,1,0,65,9.73,9.73,9.73,0,0,0,55.31,0m0,15.39A5.66,5.66,0,1,1,61,9.73a5.66,5.66,0,0,1-5.66,5.66" transform="translate(0)"/><path class="cls-4" d="M12,3.08a6.65,6.65,0,1,0,6.65,6.65A6.65,6.65,0,0,0,12,3.08M12,13.7a4,4,0,1,1,4-4,4,4,0,0,1-4,4" transform="translate(0)"/><path class="cls-2" d="M58.54,9.73a3.23,3.23,0,1,1-3.23-3.23,3.23,3.23,0,0,1,3.23,3.23" transform="translate(0)"/><path class="cls-2" d="M14.27,9.73A2.25,2.25,0,1,1,12,7.48a2.25,2.25,0,0,1,2.25,2.25" transform="translate(0)"/><path class="cls-2" d="M55.31,17.66,77.2,45.47a45.72,45.72,0,0,0,4.85-20.52s0-.08,0-.12L63.24,9.73Z" transform="translate(0)"/><path class="cls-2" d="M67.88,53.78H1.48a1.48,1.48,0,1,1,0-3h66.4a1.48,1.48,0,0,1,0,3" transform="translate(0)"/><rect class="cls-2" x="8.63" y="36.53" width="6.79" height="7.26"/><rect class="cls-2" x="39.73" y="41.2" width="19.05" height="7.26"/><rect class="cls-2" x="22.95" y="41.2" width="11.73" height="7.26"/><path class="cls-4" d="M15.79,14H8.52l0,7.27L.4,29.5,7.48,41.13,5.35,29.68l4.46-4.49a3.58,3.58,0,0,0,4.52.2l4.39,4.35-2,11.46,7-11.69-7.83-7.77Zm-1.56,9a1.9,1.9,0,0,1,0,.23,1.5,1.5,0,0,1,0,.16,2,2,0,0,1-.07.23c0,.05,0,.1-.05.15a2,2,0,0,1-.12.24l-.07.12a2.26,2.26,0,0,1-.26.32,2.16,2.16,0,0,1-3.06,0l0-.06a2.17,2.17,0,0,1-.37-.54l0-.07a2.15,2.15,0,0,1-.16-.62v-.11a2.18,2.18,0,0,1,0-.62l0-.1a2.19,2.19,0,0,1,.27-.61,2.16,2.16,0,0,1,3.6,0l.06.1a2,2,0,0,1,.13.25s0,.1.05.15a2.14,2.14,0,0,1,.07.23c0,.05,0,.11,0,.16a1.92,1.92,0,0,1,0,.23c0,.06,0,.11,0,.17" transform="translate(0)"/></g></g></g></svg>