<svg xmlns="http://www.w3.org/2000/svg" xmlns:xlink="http://www.w3.org/1999/xlink" viewBox="0 0 57.05 60.05"><defs><style>.cls-1{fill:none;}.cls-2{fill:#b50000;}.cls-3{clip-path:url(#clip-path);}</style><clipPath id="clip-path" transform="translate(0)"><rect class="cls-1" width="57.05" height="60.05"/></clipPath></defs><title>9</title><g id="Слой_2" data-name="Слой 2"><g id="Слой_1-2" data-name="Слой 1"><path class="cls-2" d="M16.2,14.2h5v6.57h-5Zm24.05,0H51.73v6.57H40.25ZM24,11.4V2.8H37.45v18H24ZM21.21,0V11.4H13.4V23.56H54.53V11.4H40.25V0Z" transform="translate(0)"/><g class="cls-3"><path class="cls-2" d="M22.61,46.55a6.75,6.75,0,1,0,6.75,6.75,6.76,6.76,0,0,0-6.75-6.75" transform="translate(0)"/><path class="cls-2" d="M44.2,46.55a6.75,6.75,0,1,0,6.75,6.75,6.76,6.76,0,0,0-6.75-6.75" transform="translate(0)"/><path class="cls-2" d="M16.22,46.24H50.64L57,20.76H11.5L6.39,7.67H0v2.8H4.47L9.21,22.61ZM14.51,30.63H51.68l-1.13,4.49H15.84Zm3.8,12.81-1.64-5.52H49.85l-1.39,5.52ZM53.46,23.56l-1.07,4.27H13.68l-1.27-4.27Z" transform="translate(0)"/></g></g></g></svg>